<svg xmlns="http://www.w3.org/2000/svg" xmlns:xlink="http://www.w3.org/1999/xlink" width="162" zoomAndPan="magnify" viewBox="0 0 121.5 238.499992" height="318" preserveAspectRatio="xMidYMid meet" version="1.0"><defs><clipPath id="9503b4efc8"><path d="M 0 0.238281 L 121.003906 0.238281 L 121.003906 237 L 0 237 Z M 0 0.238281 " clip-rule="nonzero"/></clipPath><clipPath id="94e6f095a9"><path d="M 0 0.238281 L 121.003906 0.238281 L 121.003906 237 L 0 237 Z M 0 0.238281 " clip-rule="nonzero"/></clipPath></defs><g clip-path="url(#9503b4efc8)"><path fill="#0b0b07" d="M 61.664062 0.324219 C 77.574219 0.152344 90.84375 6.164062 101.554688 17.699219 C 111.191406 28.101562 117.882812 40.167969 120.585938 54.175781 C 122.566406 64.484375 117.601562 73.378906 108.410156 76.632812 C 98.277344 80.230469 88.804688 77.007812 83.644531 67.613281 C 80.738281 62.332031 78.890625 56.484375 76.191406 51.082031 C 72.597656 43.878906 66.5 41.128906 58.542969 42.035156 C 51.097656 42.886719 44.816406 47.863281 42.640625 54.980469 C 40.800781 61 41.808594 67 43.179688 72.921875 C 47.152344 90.285156 54.210938 106.59375 60.8125 123.035156 C 71.550781 149.769531 82.582031 176.375 93.472656 203.042969 C 94.925781 206.609375 95.964844 210.292969 96.238281 214.175781 C 96.996094 225.011719 92.085938 232.433594 81.84375 235.777344 C 72.164062 238.945312 62.667969 235.585938 57.214844 226.761719 C 52.851562 219.691406 50 211.898438 46.917969 204.214844 C 34.929688 174.34375 22.367188 144.671875 11.992188 114.175781 C 6.753906 98.78125 2.253906 83.238281 0.402344 66.96875 C -3.191406 35.523438 18.089844 6.917969 49.710938 1.390625 C 53.664062 0.679688 57.648438 0.324219 61.664062 0.324219 Z M 61.664062 0.324219 " fill-opacity="1" fill-rule="nonzero"/></g><path fill="#fdfdfd" d="M 32.785156 153.242188 C 44.832031 158.1875 56.753906 160.746094 68.882812 162.429688 C 69.785156 162.558594 70.613281 162.671875 71.023438 163.664062 C 74.042969 171.097656 77.078125 178.527344 80.304688 186.4375 C 67.683594 184.527344 55.5 181.082031 43.753906 176.097656 C 42.617188 175.617188 41.757812 174.964844 41.273438 173.769531 C 38.550781 167.15625 35.8125 160.558594 32.785156 153.242188 Z M 32.785156 153.242188 " fill-opacity="1" fill-rule="nonzero"/><path fill="#db3d3b" d="M 84.402344 211.652344 C 74.640625 210.929688 64.488281 207.894531 54.6875 203.519531 C 54.003906 203.226562 53.40625 202.8125 52.894531 202.277344 C 52.382812 201.738281 52 201.125 51.742188 200.429688 C 49.515625 194.964844 47.207031 189.53125 44.945312 184.082031 C 44.554688 183.152344 43.859375 182.09375 44.808594 181.230469 C 45.578125 180.53125 46.46875 181.289062 47.261719 181.585938 C 57.375 185.453125 67.699219 188.582031 78.464844 189.988281 C 81.382812 190.378906 82.867188 191.675781 83.792969 194.378906 C 85.257812 198.710938 87.125 202.902344 88.664062 207.207031 C 90.308594 211.832031 90.214844 211.875 84.402344 211.652344 Z M 84.402344 211.652344 " fill-opacity="1" fill-rule="nonzero"/><path fill="#dd3d3c" d="M 6.742188 70.40625 C 13.503906 75.148438 19.382812 79.628906 26.425781 82.058594 C 26.984375 82.25 27.496094 82.703125 28.050781 82.75 C 43.75 84.046875 43.847656 97.328125 48.042969 108.296875 C 36.074219 106.4375 24.808594 102.5625 14.238281 96.667969 C 13.507812 96.261719 12.722656 95.53125 12.457031 94.777344 C 9.648438 86.863281 7.742188 78.742188 6.742188 70.40625 Z M 6.742188 70.40625 " fill-opacity="1" fill-rule="nonzero"/><path fill="#dc3d3b" d="M 23.234375 127.917969 C 35.160156 132.082031 46.164062 135.574219 57.628906 137.363281 C 58.96875 137.570312 60.152344 138.113281 60.75 139.539062 C 63.296875 145.613281 65.890625 151.671875 68.71875 158.328125 C 59.46875 157.453125 51.464844 154.742188 43.242188 153.085938 C 33.953125 151.21875 28.171875 146.488281 26.457031 136.976562 C 25.949219 134.152344 24.539062 131.492188 23.234375 127.917969 Z M 23.234375 127.917969 " fill-opacity="1" fill-rule="nonzero"/><path fill="#fbfcfc" d="M 14.535156 101.128906 C 25.007812 106.578125 35.832031 110.441406 47.335938 112.25 C 49.476562 112.589844 50.660156 113.457031 51.390625 115.523438 C 53.453125 121.351562 55.71875 127.113281 58.117188 133.464844 C 50.78125 132.390625 43.589844 130.703125 36.542969 128.394531 C 21.511719 123.511719 21.519531 123.480469 16.507812 108.566406 C 15.757812 106.332031 15.035156 104.09375 14.3125 101.851562 C 14.277344 101.734375 14.390625 101.574219 14.535156 101.128906 Z M 14.535156 101.128906 " fill-opacity="1" fill-rule="nonzero"/><path fill="#fcfcfc" d="M 39.351562 82.527344 C 27.050781 79.007812 16.425781 73.917969 7.53125 65.539062 C 6.613281 64.679688 6.023438 63.847656 6.027344 62.527344 C 6.058594 54.660156 7.066406 46.984375 10.390625 39.117188 C 13.394531 43.339844 15.65625 47.554688 18.78125 51.171875 C 22.976562 56.039062 27.636719 60.328125 33.285156 63.394531 C 35.234375 64.464844 36.035156 65.679688 36.15625 67.824219 C 36.433594 72.640625 37.683594 77.304688 39.351562 82.527344 Z M 39.351562 82.527344 " fill-opacity="1" fill-rule="nonzero"/><path fill="#fbfbfb" d="M 55.222656 6.570312 C 50.8125 15.996094 49.585938 25.417969 50.9375 35.066406 C 51.34375 37.921875 49.566406 38.195312 48.085938 39.171875 C 46.054688 40.503906 43.492188 43.292969 42.0625 42.804688 C 39.472656 41.925781 38.179688 38.601562 36.640625 36.097656 C 33.445312 30.890625 31.347656 25.273438 30.347656 19.25 C 30.019531 17.316406 29.839844 15.644531 32.101562 14.40625 C 39.144531 10.550781 46.4375 7.582031 55.222656 6.570312 Z M 55.222656 6.570312 " fill-opacity="1" fill-rule="nonzero"/><path fill="#de3a39" d="M 26.335938 18.414062 C 28.207031 28.886719 32.097656 37.855469 38.917969 45.425781 C 39.71875 46.316406 39.753906 47.121094 39.316406 48.226562 C 37.863281 51.917969 36.527344 55.65625 35.035156 59.695312 C 24.964844 54.296875 18.355469 45.851562 13.207031 36.03125 C 12.46875 34.613281 13.027344 33.472656 13.71875 32.3125 C 16.832031 27.066406 20.613281 22.398438 26.335938 18.414062 Z M 26.335938 18.414062 " fill-opacity="1" fill-rule="nonzero"/><path fill="#dd3c3b" d="M 90.1875 65.75 C 84.515625 60.125 82.523438 51.082031 85.230469 44.242188 C 87.871094 37.554688 91.859375 31.8125 97.023438 26.804688 C 99.195312 24.699219 100.699219 24.875 102.203125 27.445312 C 104.503906 31.386719 106.90625 35.269531 109.285156 39.167969 C 110.25 40.75 110.433594 41.953125 108.515625 43.167969 C 99.90625 48.597656 94.054688 56.351562 90.1875 65.75 Z M 90.1875 65.75 " fill-opacity="1" fill-rule="nonzero"/><path fill="#dc3b3a" d="M 62.71875 35.824219 C 54.203125 35.808594 54.214844 35.808594 54.261719 28.003906 C 54.304688 21.722656 55.617188 15.707031 57.851562 9.847656 C 58.753906 7.492188 60.132812 6.285156 62.820312 6.402344 C 67.125 6.589844 71.40625 6.632812 75.539062 8.117188 C 77.566406 8.84375 78.027344 9.71875 76.816406 11.660156 C 72.621094 18.390625 69.8125 25.644531 69.054688 33.605469 C 68.84375 35.792969 67.8125 36.683594 65.511719 36.027344 C 64.390625 35.699219 63.144531 35.847656 62.71875 35.824219 Z M 62.71875 35.824219 " fill-opacity="1" fill-rule="nonzero"/><path fill="#fbfbfb" d="M 54.851562 207.660156 C 66.207031 212.476562 77.152344 215.324219 88.605469 215.890625 C 91.535156 216.039062 90.621094 217.863281 90.332031 219.253906 C 89.082031 225.171875 85.324219 228.738281 79.527344 230.289062 C 73.402344 231.929688 68.136719 230.6875 63.933594 225.757812 C 59.628906 220.695312 57.726562 214.457031 54.851562 207.660156 Z M 54.851562 207.660156 " fill-opacity="1" fill-rule="nonzero"/><path fill="#fbfbfb" d="M 80.472656 46.414062 C 78.066406 43.710938 76.261719 40.761719 73.269531 39.027344 C 72.167969 38.386719 72.285156 37.398438 72.402344 36.320312 C 73.285156 28.320312 75.589844 20.820312 79.851562 13.886719 C 81.578125 11.078125 83.152344 10.839844 85.800781 12.511719 C 89.320312 14.742188 92.46875 17.375 95.523438 20.164062 C 96.699219 21.230469 97.132812 22.046875 95.578125 23.257812 C 87.992188 29.15625 83.410156 37.070312 80.472656 46.414062 Z M 80.472656 46.414062 " fill-opacity="1" fill-rule="nonzero"/><path fill="#fbfbfb" d="M 114.90625 58.203125 C 114.925781 67.832031 105.855469 74.457031 96.601562 71.640625 C 93.890625 70.816406 92.628906 69.746094 93.972656 66.613281 C 97.433594 58.546875 102.730469 52.035156 109.695312 46.753906 C 111.515625 45.375 112.339844 45.617188 113.007812 47.847656 C 114.042969 51.246094 114.988281 54.621094 114.90625 58.203125 Z M 114.90625 58.203125 " fill-opacity="1" fill-rule="nonzero"/><g clip-path="url(#94e6f095a9)"><path fill="#0b0b07" d="M 61.664062 0.324219 C 77.574219 0.152344 90.84375 6.164062 101.554688 17.699219 C 111.191406 28.101562 117.882812 40.167969 120.585938 54.175781 C 122.566406 64.484375 117.601562 73.378906 108.410156 76.632812 C 98.277344 80.230469 88.804688 77.007812 83.644531 67.613281 C 80.738281 62.332031 78.890625 56.484375 76.191406 51.082031 C 72.597656 43.878906 66.5 41.128906 58.542969 42.035156 C 51.097656 42.886719 44.816406 47.863281 42.640625 54.980469 C 40.800781 61 41.808594 67 43.179688 72.921875 C 47.152344 90.285156 54.210938 106.59375 60.8125 123.035156 C 71.550781 149.769531 82.582031 176.375 93.472656 203.042969 C 94.925781 206.609375 95.964844 210.292969 96.238281 214.175781 C 96.996094 225.011719 92.085938 232.433594 81.84375 235.777344 C 72.164062 238.945312 62.667969 235.585938 57.214844 226.761719 C 52.851562 219.691406 50 211.898438 46.917969 204.214844 C 34.929688 174.34375 22.367188 144.671875 11.992188 114.175781 C 6.753906 98.78125 2.253906 83.238281 0.402344 66.96875 C -3.191406 35.523438 18.089844 6.917969 49.710938 1.390625 C 53.664062 0.679688 57.648438 0.324219 61.664062 0.324219 Z M 61.664062 0.324219 " fill-opacity="1" fill-rule="nonzero"/></g><path fill="#fdfdfd" d="M 32.785156 153.242188 C 44.832031 158.1875 56.753906 160.746094 68.882812 162.429688 C 69.785156 162.558594 70.613281 162.671875 71.023438 163.664062 C 74.042969 171.097656 77.078125 178.527344 80.304688 186.4375 C 67.683594 184.527344 55.5 181.082031 43.753906 176.097656 C 42.617188 175.617188 41.757812 174.964844 41.273438 173.769531 C 38.550781 167.15625 35.8125 160.558594 32.785156 153.242188 Z M 32.785156 153.242188 " fill-opacity="1" fill-rule="nonzero"/><path fill="#db3d3b" d="M 84.402344 211.652344 C 74.640625 210.929688 64.488281 207.894531 54.6875 203.519531 C 54.003906 203.226562 53.40625 202.8125 52.894531 202.277344 C 52.382812 201.738281 52 201.125 51.742188 200.429688 C 49.515625 194.964844 47.207031 189.53125 44.945312 184.082031 C 44.554688 183.152344 43.859375 182.09375 44.808594 181.230469 C 45.578125 180.53125 46.46875 181.289062 47.261719 181.585938 C 57.375 185.453125 67.699219 188.582031 78.464844 189.988281 C 81.382812 190.378906 82.867188 191.675781 83.792969 194.378906 C 85.257812 198.710938 87.125 202.902344 88.664062 207.207031 C 90.308594 211.832031 90.214844 211.875 84.402344 211.652344 Z M 84.402344 211.652344 " fill-opacity="1" fill-rule="nonzero"/><path fill="#dd3d3c" d="M 6.742188 70.40625 C 13.503906 75.148438 19.382812 79.628906 26.425781 82.058594 C 26.984375 82.25 27.496094 82.703125 28.050781 82.75 C 43.75 84.046875 43.847656 97.328125 48.042969 108.296875 C 36.074219 106.4375 24.808594 102.5625 14.238281 96.667969 C 13.507812 96.261719 12.722656 95.53125 12.457031 94.777344 C 9.648438 86.863281 7.742188 78.742188 6.742188 70.40625 Z M 6.742188 70.40625 " fill-opacity="1" fill-rule="nonzero"/><path fill="#dc3d3b" d="M 23.234375 127.917969 C 35.160156 132.082031 46.164062 135.574219 57.628906 137.363281 C 58.96875 137.570312 60.152344 138.113281 60.75 139.539062 C 63.296875 145.613281 65.890625 151.671875 68.71875 158.328125 C 59.46875 157.453125 51.464844 154.742188 43.242188 153.085938 C 33.953125 151.21875 28.171875 146.488281 26.457031 136.976562 C 25.949219 134.152344 24.539062 131.492188 23.234375 127.917969 Z M 23.234375 127.917969 " fill-opacity="1" fill-rule="nonzero"/><path fill="#fbfcfc" d="M 14.535156 101.128906 C 25.007812 106.578125 35.832031 110.441406 47.335938 112.25 C 49.476562 112.589844 50.660156 113.457031 51.390625 115.523438 C 53.453125 121.351562 55.71875 127.113281 58.117188 133.464844 C 50.78125 132.390625 43.589844 130.703125 36.542969 128.394531 C 21.511719 123.511719 21.519531 123.480469 16.507812 108.566406 C 15.757812 106.332031 15.035156 104.09375 14.3125 101.851562 C 14.277344 101.734375 14.390625 101.574219 14.535156 101.128906 Z M 14.535156 101.128906 " fill-opacity="1" fill-rule="nonzero"/><path fill="#fcfcfc" d="M 39.351562 82.527344 C 27.050781 79.007812 16.425781 73.917969 7.53125 65.539062 C 6.613281 64.679688 6.023438 63.847656 6.027344 62.527344 C 6.058594 54.660156 7.066406 46.984375 10.390625 39.117188 C 13.394531 43.339844 15.65625 47.554688 18.78125 51.171875 C 22.976562 56.039062 27.636719 60.328125 33.285156 63.394531 C 35.234375 64.464844 36.035156 65.679688 36.15625 67.824219 C 36.433594 72.640625 37.683594 77.304688 39.351562 82.527344 Z M 39.351562 82.527344 " fill-opacity="1" fill-rule="nonzero"/><path fill="#fbfbfb" d="M 55.222656 6.570312 C 50.8125 15.996094 49.585938 25.417969 50.9375 35.066406 C 51.34375 37.921875 49.566406 38.195312 48.085938 39.171875 C 46.054688 40.503906 43.492188 43.292969 42.0625 42.804688 C 39.472656 41.925781 38.179688 38.601562 36.640625 36.097656 C 33.445312 30.890625 31.347656 25.273438 30.347656 19.25 C 30.019531 17.316406 29.839844 15.644531 32.101562 14.40625 C 39.144531 10.550781 46.4375 7.582031 55.222656 6.570312 Z M 55.222656 6.570312 " fill-opacity="1" fill-rule="nonzero"/><path fill="#de3a39" d="M 26.335938 18.414062 C 28.207031 28.886719 32.097656 37.855469 38.917969 45.425781 C 39.71875 46.316406 39.753906 47.121094 39.316406 48.226562 C 37.863281 51.917969 36.527344 55.65625 35.035156 59.695312 C 24.964844 54.296875 18.355469 45.851562 13.207031 36.03125 C 12.46875 34.613281 13.027344 33.472656 13.71875 32.3125 C 16.832031 27.066406 20.613281 22.398438 26.335938 18.414062 Z M 26.335938 18.414062 " fill-opacity="1" fill-rule="nonzero"/><path fill="#dd3c3b" d="M 90.1875 65.75 C 84.515625 60.125 82.523438 51.082031 85.230469 44.242188 C 87.871094 37.554688 91.859375 31.8125 97.023438 26.804688 C 99.195312 24.699219 100.699219 24.875 102.203125 27.445312 C 104.503906 31.386719 106.90625 35.269531 109.285156 39.167969 C 110.25 40.75 110.433594 41.953125 108.515625 43.167969 C 99.90625 48.597656 94.054688 56.351562 90.1875 65.75 Z M 90.1875 65.75 " fill-opacity="1" fill-rule="nonzero"/><path fill="#dc3b3a" d="M 62.71875 35.824219 C 54.203125 35.808594 54.214844 35.808594 54.261719 28.003906 C 54.304688 21.722656 55.617188 15.707031 57.851562 9.847656 C 58.753906 7.492188 60.132812 6.285156 62.820312 6.402344 C 67.125 6.589844 71.40625 6.632812 75.539062 8.117188 C 77.566406 8.84375 78.027344 9.71875 76.816406 11.660156 C 72.621094 18.390625 69.8125 25.644531 69.054688 33.605469 C 68.84375 35.792969 67.8125 36.683594 65.511719 36.027344 C 64.390625 35.699219 63.144531 35.847656 62.71875 35.824219 Z M 62.71875 35.824219 " fill-opacity="1" fill-rule="nonzero"/><path fill="#fbfbfb" d="M 54.851562 207.660156 C 66.207031 212.476562 77.152344 215.324219 88.605469 215.890625 C 91.535156 216.039062 90.621094 217.863281 90.332031 219.253906 C 89.082031 225.171875 85.324219 228.738281 79.527344 230.289062 C 73.402344 231.929688 68.136719 230.6875 63.933594 225.757812 C 59.628906 220.695312 57.726562 214.457031 54.851562 207.660156 Z M 54.851562 207.660156 " fill-opacity="1" fill-rule="nonzero"/><path fill="#fbfbfb" d="M 80.472656 46.414062 C 78.066406 43.710938 76.261719 40.761719 73.269531 39.027344 C 72.167969 38.386719 72.285156 37.398438 72.402344 36.320312 C 73.285156 28.320312 75.589844 20.820312 79.851562 13.886719 C 81.578125 11.078125 83.152344 10.839844 85.800781 12.511719 C 89.320312 14.742188 92.46875 17.375 95.523438 20.164062 C 96.699219 21.230469 97.132812 22.046875 95.578125 23.257812 C 87.992188 29.15625 83.410156 37.070312 80.472656 46.414062 Z M 80.472656 46.414062 " fill-opacity="1" fill-rule="nonzero"/><path fill="#fbfbfb" d="M 114.90625 58.203125 C 114.925781 67.832031 105.855469 74.457031 96.601562 71.640625 C 93.890625 70.816406 92.628906 69.746094 93.972656 66.613281 C 97.433594 58.546875 102.730469 52.035156 109.695312 46.753906 C 111.515625 45.375 112.339844 45.617188 113.007812 47.847656 C 114.042969 51.246094 114.988281 54.621094 114.90625 58.203125 Z M 114.90625 58.203125 " fill-opacity="1" fill-rule="nonzero"/></svg>