<svg xmlns="http://www.w3.org/2000/svg" xmlns:xlink="http://www.w3.org/1999/xlink" width="239" zoomAndPan="magnify" viewBox="0 0 179.25 238.499992" height="318" preserveAspectRatio="xMidYMid meet" version="1.0"><defs><clipPath id="7acf4d8407"><path d="M 0 0.246094 L 178.503906 0.246094 L 178.503906 237 L 0 237 Z M 0 0.246094 " clip-rule="nonzero"/></clipPath><clipPath id="eb8b0a6b31"><path d="M 0 0.246094 L 178.503906 0.246094 L 178.503906 237 L 0 237 Z M 0 0.246094 " clip-rule="nonzero"/></clipPath></defs><g clip-path="url(#7acf4d8407)"><path fill="#020403" d="M 149.808594 83.230469 C 146.628906 80.304688 140.851562 78.945312 140.664062 74.277344 C 140.496094 70.050781 143 65.6875 144.398438 61.410156 C 148.515625 48.773438 148.183594 47.824219 136.953125 41.207031 C 142.230469 36.089844 146.304688 30.246094 147.835938 22.972656 C 149.148438 16.777344 148.609375 10.847656 144.171875 5.902344 C 139.988281 1.234375 134.566406 -0.515625 128.476562 0.625 C 121.039062 2.03125 116.804688 7.144531 114.636719 14.027344 C 113.726562 16.855469 113.171875 19.753906 112.976562 22.722656 C 112.785156 25.6875 112.953125 28.632812 113.484375 31.558594 C 113.816406 33.390625 113.984375 34.59375 111.105469 34.238281 C 104.132812 33.390625 101.738281 35.015625 99.3125 41.605469 C 97.273438 47.140625 95.382812 52.75 93.617188 58.382812 C 92.894531 60.679688 91.675781 61.417969 89.3125 61.316406 C 81.65625 60.976562 74.117188 61.976562 66.691406 63.800781 C 30.09375 72.8125 3.503906 102.851562 0.363281 139.839844 C -1.8125 165.46875 5.972656 188.0625 23.011719 207.589844 C 51.765625 240.539062 105.445312 246.816406 140.699219 220.941406 C 165.605469 202.660156 178.101562 177.796875 178.496094 147.113281 C 178.820312 121.570312 168.578125 100.480469 149.808594 83.230469 Z M 124.824219 13.410156 C 126.96875 9.84375 130.425781 8.421875 134.203125 9.648438 C 138.113281 10.90625 139.664062 14.011719 139.390625 17.816406 C 138.800781 26.03125 134.203125 32.199219 128.316406 37.4375 C 126.058594 39.453125 124.394531 37.847656 123.707031 35.445312 C 122.707031 31.9375 121.945312 28.375 122.097656 24.691406 C 121.972656 20.683594 122.75 16.867188 124.824219 13.410156 Z M 124.824219 13.410156 " fill-opacity="1" fill-rule="nonzero"/></g><path fill="#e44b42" d="M 11.113281 164.335938 C 5.820312 142.367188 9.984375 121.996094 22.84375 103.746094 C 39.324219 80.371094 62.386719 69.4375 91 70.136719 C 92.894531 70.179688 94.550781 70.417969 95.859375 72.066406 C 97.117188 73.644531 99.007812 74.449219 100.867188 75.097656 C 108.964844 77.941406 117.09375 80.710938 125.207031 83.523438 C 127.136719 84.191406 129.273438 84.480469 131.007812 83.671875 C 134.171875 82.195312 136.304688 83.492188 138.578125 85.390625 C 142.246094 88.457031 145.996094 91.4375 149.070312 95.140625 C 153.375 103.269531 156.832031 111.6875 158.03125 120.898438 C 161.109375 144.570312 155.824219 166.027344 140.375 184.460938 C 124.847656 202.996094 104.40625 212.398438 80.507812 211.746094 C 51.304688 210.96875 28.824219 197.5 14.367188 171.652344 C 13.050781 169.308594 12.613281 166.589844 11.113281 164.335938 Z M 11.113281 164.335938 " fill-opacity="1" fill-rule="nonzero"/><path fill="#c83a43" d="M 11.113281 164.335938 C 13.183594 165.449219 13.574219 167.695312 14.515625 169.519531 C 26.238281 192.257812 45.121094 205.679688 70.003906 209.714844 C 92.917969 213.433594 113.625 207.328125 131.359375 191.867188 C 151.855469 174 159.144531 151.007812 157.472656 124.714844 C 156.90625 115.882812 154.027344 107.429688 150.109375 99.410156 C 149.472656 98.097656 148.136719 96.878906 149.070312 95.140625 C 161.132812 107.175781 167.605469 121.894531 169.308594 138.644531 C 173.558594 180.523438 147.136719 217.636719 105.867188 226.328125 C 62.171875 235.523438 19.859375 207.296875 11.113281 165.175781 C 11.085938 164.894531 11.085938 164.617188 11.113281 164.335938 Z M 11.113281 164.335938 " fill-opacity="1" fill-rule="nonzero"/><path fill="#f2ab26" d="M 123.664062 73.082031 C 117.511719 71.160156 111.371094 69.195312 105.199219 67.332031 C 101.582031 66.234375 100.777344 64.21875 102.164062 60.683594 C 104.152344 55.617188 105.828125 50.386719 107.460938 45.175781 C 108.167969 42.921875 109.226562 42.398438 111.492188 43.097656 C 118.726562 45.332031 126.007812 47.421875 133.054688 50.230469 C 130.152344 57.292969 127.898438 64.59375 125.195312 71.722656 C 124.917969 72.410156 124.957031 73.523438 123.664062 73.082031 Z M 123.664062 73.082031 " fill-opacity="1" fill-rule="nonzero"/><path fill="#dd8c30" d="M 123.664062 73.082031 C 125.570312 66.011719 129.027344 59.460938 130.601562 52.28125 C 130.902344 50.890625 132.53125 51.257812 133.054688 50.230469 C 137.328125 50.332031 138.226562 52.378906 136.851562 56.230469 C 135.359375 60.425781 134.253906 64.761719 132.925781 69.019531 C 131.148438 74.679688 129.199219 75.503906 123.664062 73.082031 Z M 123.664062 73.082031 " fill-opacity="1" fill-rule="nonzero"/><path fill="#fdfcfd" d="M 76.085938 82.34375 C 82.460938 82.355469 85.792969 84.0625 86.804688 87.835938 C 87.839844 91.816406 85.300781 96.242188 80.226562 98.9375 C 75.691406 101.347656 70.886719 102.824219 65.679688 102.597656 C 60.957031 102.386719 57.296875 99.847656 56.238281 96.148438 C 55.1875 92.488281 56.847656 89.195312 61.253906 86.476562 C 63.480469 85.097656 65.855469 84.058594 68.375 83.355469 C 70.898438 82.652344 73.46875 82.316406 76.085938 82.34375 Z M 76.085938 82.34375 " fill-opacity="1" fill-rule="nonzero"/><path fill="#fcfafc" d="M 49.273438 107.394531 C 49.375 113.453125 44.015625 120.019531 38.992188 119.992188 C 34.796875 119.964844 31.375 116.660156 31.320312 112.554688 C 31.234375 107.238281 37.265625 101.066406 42.757812 100.855469 C 46.824219 100.699219 49.195312 103.082031 49.273438 107.394531 Z M 49.273438 107.394531 " fill-opacity="1" fill-rule="nonzero"/><path fill="#fcfbfc" d="M 28.621094 142.863281 C 25.253906 142.949219 22.167969 139.976562 22.015625 136.496094 C 21.808594 131.796875 25.339844 127.273438 29.304688 127.15625 C 32.945312 127.046875 36.074219 129.972656 36.277344 133.667969 C 36.5 138.027344 32.550781 142.765625 28.621094 142.863281 Z M 28.621094 142.863281 " fill-opacity="1" fill-rule="nonzero"/><g clip-path="url(#eb8b0a6b31)"><path fill="#020403" d="M 149.808594 83.230469 C 146.628906 80.304688 140.851562 78.945312 140.664062 74.277344 C 140.496094 70.050781 143 65.6875 144.398438 61.410156 C 148.515625 48.773438 148.183594 47.824219 136.953125 41.207031 C 142.230469 36.089844 146.304688 30.246094 147.835938 22.972656 C 149.148438 16.777344 148.609375 10.847656 144.171875 5.902344 C 139.988281 1.234375 134.566406 -0.515625 128.476562 0.625 C 121.039062 2.03125 116.804688 7.144531 114.636719 14.027344 C 113.726562 16.855469 113.171875 19.753906 112.976562 22.722656 C 112.785156 25.6875 112.953125 28.632812 113.484375 31.558594 C 113.816406 33.390625 113.984375 34.59375 111.105469 34.238281 C 104.132812 33.390625 101.738281 35.015625 99.3125 41.605469 C 97.273438 47.140625 95.382812 52.75 93.617188 58.382812 C 92.894531 60.679688 91.675781 61.417969 89.3125 61.316406 C 81.65625 60.976562 74.117188 61.976562 66.691406 63.800781 C 30.09375 72.8125 3.503906 102.851562 0.363281 139.839844 C -1.8125 165.46875 5.972656 188.0625 23.011719 207.589844 C 51.765625 240.539062 105.445312 246.816406 140.699219 220.941406 C 165.605469 202.660156 178.101562 177.796875 178.496094 147.113281 C 178.820312 121.570312 168.578125 100.480469 149.808594 83.230469 Z M 124.824219 13.410156 C 126.96875 9.84375 130.425781 8.421875 134.203125 9.648438 C 138.113281 10.90625 139.664062 14.011719 139.390625 17.816406 C 138.800781 26.03125 134.203125 32.199219 128.316406 37.4375 C 126.058594 39.453125 124.394531 37.847656 123.707031 35.445312 C 122.707031 31.9375 121.945312 28.375 122.097656 24.691406 C 121.972656 20.683594 122.75 16.867188 124.824219 13.410156 Z M 124.824219 13.410156 " fill-opacity="1" fill-rule="nonzero"/></g><path fill="#e44b42" d="M 11.113281 164.335938 C 5.820312 142.367188 9.984375 121.996094 22.84375 103.746094 C 39.324219 80.371094 62.386719 69.4375 91 70.136719 C 92.894531 70.179688 94.550781 70.417969 95.859375 72.066406 C 97.117188 73.644531 99.007812 74.449219 100.867188 75.097656 C 108.964844 77.941406 117.09375 80.710938 125.207031 83.523438 C 127.136719 84.191406 129.273438 84.480469 131.007812 83.671875 C 134.171875 82.195312 136.304688 83.492188 138.578125 85.390625 C 142.246094 88.457031 145.996094 91.4375 149.070312 95.140625 C 153.375 103.269531 156.832031 111.6875 158.03125 120.898438 C 161.109375 144.570312 155.824219 166.027344 140.375 184.460938 C 124.847656 202.996094 104.40625 212.398438 80.507812 211.746094 C 51.304688 210.96875 28.824219 197.5 14.367188 171.652344 C 13.050781 169.308594 12.613281 166.589844 11.113281 164.335938 Z M 11.113281 164.335938 " fill-opacity="1" fill-rule="nonzero"/><path fill="#c83a43" d="M 11.113281 164.335938 C 13.183594 165.449219 13.574219 167.695312 14.515625 169.519531 C 26.238281 192.257812 45.121094 205.679688 70.003906 209.714844 C 92.917969 213.433594 113.625 207.328125 131.359375 191.867188 C 151.855469 174 159.144531 151.007812 157.472656 124.714844 C 156.90625 115.882812 154.027344 107.429688 150.109375 99.410156 C 149.472656 98.097656 148.136719 96.878906 149.070312 95.140625 C 161.132812 107.175781 167.605469 121.894531 169.308594 138.644531 C 173.558594 180.523438 147.136719 217.636719 105.867188 226.328125 C 62.171875 235.523438 19.859375 207.296875 11.113281 165.175781 C 11.085938 164.894531 11.085938 164.617188 11.113281 164.335938 Z M 11.113281 164.335938 " fill-opacity="1" fill-rule="nonzero"/><path fill="#f2ab26" d="M 123.664062 73.082031 C 117.511719 71.160156 111.371094 69.195312 105.199219 67.332031 C 101.582031 66.234375 100.777344 64.21875 102.164062 60.683594 C 104.152344 55.617188 105.828125 50.386719 107.460938 45.175781 C 108.167969 42.921875 109.226562 42.398438 111.492188 43.097656 C 118.726562 45.332031 126.007812 47.421875 133.054688 50.230469 C 130.152344 57.292969 127.898438 64.59375 125.195312 71.722656 C 124.917969 72.410156 124.957031 73.523438 123.664062 73.082031 Z M 123.664062 73.082031 " fill-opacity="1" fill-rule="nonzero"/><path fill="#dd8c30" d="M 123.664062 73.082031 C 125.570312 66.011719 129.027344 59.460938 130.601562 52.28125 C 130.902344 50.890625 132.53125 51.257812 133.054688 50.230469 C 137.328125 50.332031 138.226562 52.378906 136.851562 56.230469 C 135.359375 60.425781 134.253906 64.761719 132.925781 69.019531 C 131.148438 74.679688 129.199219 75.503906 123.664062 73.082031 Z M 123.664062 73.082031 " fill-opacity="1" fill-rule="nonzero"/><path fill="#fdfcfd" d="M 76.085938 82.34375 C 82.460938 82.355469 85.792969 84.0625 86.804688 87.835938 C 87.839844 91.816406 85.300781 96.242188 80.226562 98.9375 C 75.691406 101.347656 70.886719 102.824219 65.679688 102.597656 C 60.957031 102.386719 57.296875 99.847656 56.238281 96.148438 C 55.1875 92.488281 56.847656 89.195312 61.253906 86.476562 C 63.480469 85.097656 65.855469 84.058594 68.375 83.355469 C 70.898438 82.652344 73.46875 82.316406 76.085938 82.34375 Z M 76.085938 82.34375 " fill-opacity="1" fill-rule="nonzero"/><path fill="#fcfafc" d="M 49.273438 107.394531 C 49.375 113.453125 44.015625 120.019531 38.992188 119.992188 C 34.796875 119.964844 31.375 116.660156 31.320312 112.554688 C 31.234375 107.238281 37.265625 101.066406 42.757812 100.855469 C 46.824219 100.699219 49.195312 103.082031 49.273438 107.394531 Z M 49.273438 107.394531 " fill-opacity="1" fill-rule="nonzero"/><path fill="#fcfbfc" d="M 28.621094 142.863281 C 25.253906 142.949219 22.167969 139.976562 22.015625 136.496094 C 21.808594 131.796875 25.339844 127.273438 29.304688 127.15625 C 32.945312 127.046875 36.074219 129.972656 36.277344 133.667969 C 36.5 138.027344 32.550781 142.765625 28.621094 142.863281 Z M 28.621094 142.863281 " fill-opacity="1" fill-rule="nonzero"/></svg>